# xmcd
#
# Track frame offsets: 
#        182
#        16775
#        40375
#        63630
#        79845
#        103192
#
# Disc length: 1673 seconds
#
# Revision: 0
# Processed by: cddbd v1.4PL0 Copyright (c) Steve Scherf et al.
# Submitted via: ExactAudioCopy v0.90b4
#
DISCID=48068706
DTITLE=P.M. Dawn - Downtown Venus
DYEAR=1995
DGENRE=R&B
TTITLE0=Downtown Venus
TTITLE1=Downtown Venus (Kiss My Wife Mix)
TTITLE2=Downtown Venus (I Wanna Be Into You Mix)
TTITLE3=She Dreams Persistant Maybes
TTITLE4=Downtown Venus (No Tongue Mix)
TTITLE5=Downtown Venus (Drumapapella)
EXTD=
EXTT0=
EXTT1=
EXTT2=
EXTT3=
EXTT4=
EXTT5=
PLAYORDER=
